<?xml version="1.0" encoding="UTF-8" standalone="no"?>
<svg width="40px" height="40px" viewBox="0 0 40 40" version="1.1" xmlns="http://www.w3.org/2000/svg" xmlns:xlink="http://www.w3.org/1999/xlink">
    <!-- Generator: Sketch 3.6.1 (26313) - http://www.bohemiancoding.com/sketch -->
    <title>Group 2</title>
    <desc>Created with Sketch.</desc>
    <defs></defs>
    <g id="Welcome" stroke="none" stroke-width="1" fill="none" fill-rule="evenodd">
        <g id="Washer-experience" transform="translate(-141.000000, -543.000000)">
            <g id="Group-2" transform="translate(141.000000, 543.000000)">
                <rect id="Rectangle-324" stroke="#0E0E0E" stroke-width="2" fill="#FFFFFF" x="0" y="0" width="40" height="40" rx="2"></rect>
                <rect id="Rectangle-325" fill="#252525" x="5" y="5" width="2" height="2"></rect>
                <rect id="Rectangle-325" fill="#252525" x="2" y="12" width="12" height="2"></rect>
                <rect id="Rectangle-325" fill="#252525" x="2" y="15" width="12" height="2"></rect>
                <rect id="Rectangle-325" fill="#252525" x="34" y="5" width="2" height="2"></rect>
                <rect id="Rectangle-325" fill="#252525" x="34" y="33" width="2" height="2"></rect>
                <rect id="Rectangle-325" fill="#252525" x="5" y="33" width="2" height="2"></rect>
                <rect id="Rectangle-331" stroke="#252525" stroke-width="2" fill="#FFFFFF" x="5" y="19" width="14" height="12"></rect>
                <path d="M7.5,23.5 L16.5,23.5" id="Line" stroke="#252525" stroke-linecap="square"></path>
                <path d="M7.5,26.5 L16.5,26.5" id="Line" stroke="#252525" stroke-linecap="square"></path>
                <rect id="Rectangle-332" stroke="#252525" stroke-width="2" x="22" y="7" width="10" height="9"></rect>
                <path d="M31,37.5 L31,27.5" id="Line" stroke="#252525" stroke-width="2" stroke-linecap="square"></path>
                <path d="M27,37.5 L27,27.5" id="Line" stroke="#252525" stroke-width="2" stroke-linecap="square"></path>
                <path d="M23,37.5 L23,27.5" id="Line" stroke="#252525" stroke-width="2" stroke-linecap="square"></path>
                <circle id="Oval-45" stroke="#252525" cx="24.5" cy="20.5" r="1.5"></circle>
                <circle id="Oval-45" stroke="#252525" cx="30.5" cy="20.5" r="1.5"></circle>
            </g>
        </g>
    </g>
</svg>