<?xml version="1.0" encoding="UTF-8" standalone="no"?>
<!DOCTYPE svg PUBLIC "-//W3C//DTD SVG 1.0//EN" "http://www.w3.org/TR/2001/PR-SVG-20010719/DTD/svg10.dtd">
<svg width="46cm" height="16cm" viewBox="52 -331 904 309" xmlns="http://www.w3.org/2000/svg" xmlns:xlink="http://www.w3.org/1999/xlink">
  <g>
    <line style="fill: none; fill-opacity:0; stroke-width: 2; stroke: #ff8400" x1="297" y1="-86.15" x2="321.266" y2="-86.15"/>
    <polygon style="fill: #ff8400" points="325.766,-86.15 319.766,-83.15 321.266,-86.15 319.766,-89.15 "/>
    <polygon style="fill: none; fill-opacity:0; stroke-width: 2; stroke: #ff8400" points="325.766,-86.15 319.766,-83.15 321.266,-86.15 319.766,-89.15 "/>
  </g>
  <g>
    <line style="fill: none; fill-opacity:0; stroke-width: 2; stroke: #ff8400" x1="158.375" y1="-199.874" x2="190.09" y2="-92.6096"/>
    <polygon style="fill: #ff8400" points="191.366,-88.2943 186.788,-93.1975 190.09,-92.6096 192.542,-94.8987 "/>
    <polygon style="fill: none; fill-opacity:0; stroke-width: 2; stroke: #ff8400" points="191.366,-88.2943 186.788,-93.1975 190.09,-92.6096 192.542,-94.8987 "/>
  </g>
  <g>
    <line style="fill: none; fill-opacity:0; stroke-width: 2; stroke: #000000" x1="568.624" y1="-219.196" x2="607.217" y2="-241.792"/>
    <polygon style="fill: #000000" points="611.1,-244.066 607.438,-238.446 607.217,-241.792 604.407,-243.623 "/>
    <polygon style="fill: none; fill-opacity:0; stroke-width: 2; stroke: #000000" points="611.1,-244.066 607.438,-238.446 607.217,-241.792 604.407,-243.623 "/>
  </g>
  <g>
    <line style="fill: none; fill-opacity:0; stroke-width: 2; stroke: #000000" x1="332" y1="-307.874" x2="790.95" y2="-306.888"/>
    <polygon style="fill: #000000" points="795.45,-306.879 789.444,-303.892 790.95,-306.888 789.456,-309.892 "/>
    <polygon style="fill: none; fill-opacity:0; stroke-width: 2; stroke: #000000" points="795.45,-306.879 789.444,-303.892 790.95,-306.888 789.456,-309.892 "/>
  </g>
  <g>
    <polyline style="fill: none; fill-opacity:0; stroke-width: 2; stroke: #ff8400" points="568.5,-120.044 590.261,-120.044 590.261,-119.869 605.286,-119.869 "/>
    <polygon style="fill: #ff8400" points="609.786,-119.869 603.786,-116.869 605.286,-119.869 603.786,-122.869 "/>
    <polygon style="fill: none; fill-opacity:0; stroke-width: 2; stroke: #ff8400" points="609.786,-119.869 603.786,-116.869 605.286,-119.869 603.786,-122.869 "/>
  </g>
  <g>
    <polyline style="fill: none; fill-opacity:0; stroke-width: 2; stroke: #000000" points="734.97,-50.15 763,-50.15 763,-50.15 791.638,-50.15 "/>
    <polygon style="fill: #000000" points="796.138,-50.15 790.138,-47.15 791.638,-50.15 790.138,-53.15 "/>
    <polygon style="fill: none; fill-opacity:0; stroke-width: 2; stroke: #000000" points="796.138,-50.15 790.138,-47.15 791.638,-50.15 790.138,-53.15 "/>
  </g>
  <g>
    <polyline style="fill: none; fill-opacity:0; stroke-width: 2; stroke: #000000" points="567.5,-50.15 589.296,-50.15 589.296,-50.15 604.358,-50.15 "/>
    <polygon style="fill: #000000" points="608.858,-50.15 602.858,-47.15 604.358,-50.15 602.858,-53.15 "/>
    <polygon style="fill: none; fill-opacity:0; stroke-width: 2; stroke: #000000" points="608.858,-50.15 602.858,-47.15 604.358,-50.15 602.858,-53.15 "/>
  </g>
  <text font-size="12.8" style="fill: #000000;text-anchor:start;font-family:sans-serif;font-style:normal;font-weight:normal" x="150" y="-141.9">
    <tspan x="150" y="-141.9">Yes</tspan>
  </text>
  <text font-size="12.8" style="fill: #000000;text-anchor:start;font-family:sans-serif;font-style:normal;font-weight:normal" x="305.002" y="-96.2498">
    <tspan x="305.002" y="-96.2498">No</tspan>
  </text>
  <text font-size="12.8" style="fill: #000000;text-anchor:start;font-family:sans-serif;font-style:normal;font-weight:normal" x="407.752" y="-108.1">
    <tspan x="407.752" y="-108.1">Yes</tspan>
  </text>
  <text font-size="12.8" style="fill: #000000;text-anchor:start;font-family:sans-serif;font-style:normal;font-weight:normal" x="577.752" y="-127.1">
    <tspan x="577.752" y="-127.1">No</tspan>
  </text>
  <text font-size="12.8" style="fill: #000000;text-anchor:start;font-family:sans-serif;font-style:normal;font-weight:normal" x="351.752" y="-318.1">
    <tspan x="351.752" y="-318.1">Yes</tspan>
  </text>
  <text font-size="12.8" style="fill: #000000;text-anchor:start;font-family:sans-serif;font-style:normal;font-weight:normal" x="154.002" y="-237.25">
    <tspan x="154.002" y="-237.25">No</tspan>
  </text>
  <text font-size="12.8" style="fill: #000000;text-anchor:start;font-family:sans-serif;font-style:normal;font-weight:normal" x="733.752" y="-74.5226">
    <tspan x="733.752" y="-74.5226">No</tspan>
  </text>
  <text font-size="12.8" style="fill: #000000;text-anchor:start;font-family:sans-serif;font-style:normal;font-weight:normal" x="476.752" y="-155.1">
    <tspan x="476.752" y="-155.1">Yes</tspan>
  </text>
  <text font-size="12.8" style="fill: #000000;text-anchor:start;font-family:sans-serif;font-style:normal;font-weight:normal" x="753.002" y="-32.5862">
    <tspan x="753.002" y="-32.5862">Yes</tspan>
  </text>
  <text font-size="12.8" style="fill: #000000;text-anchor:start;font-family:sans-serif;font-style:normal;font-weight:normal" x="572.002" y="-71.2498">
    <tspan x="572.002" y="-71.2498">Yes</tspan>
  </text>
  <text font-size="12.8" style="fill: #000000;text-anchor:start;font-family:sans-serif;font-style:normal;font-weight:normal" x="398.752" y="-53.0998">
    <tspan x="398.752" y="-53.0998">No</tspan>
  </text>
  <g>
    <polyline style="fill: none; fill-opacity:0; stroke-width: 2; stroke: #000000" points="733.384,-184.221 764.878,-184.221 764.878,-184.221 789.638,-184.221 "/>
    <polygon style="fill: #000000" points="794.138,-184.221 788.138,-181.221 789.638,-184.221 788.138,-187.221 "/>
    <polygon style="fill: none; fill-opacity:0; stroke-width: 2; stroke: #000000" points="794.138,-184.221 788.138,-181.221 789.638,-184.221 788.138,-187.221 "/>
  </g>
  <g>
    <line style="fill: none; fill-opacity:0; stroke-width: 2; stroke: #000000" x1="158.375" y1="-199.874" x2="189.998" y2="-301.442"/>
    <polygon style="fill: #000000" points="191.335,-305.739 192.416,-299.118 189.998,-301.442 186.687,-300.902 "/>
    <polygon style="fill: none; fill-opacity:0; stroke-width: 2; stroke: #000000" points="191.335,-305.739 192.416,-299.118 189.998,-301.442 186.687,-300.902 "/>
  </g>
  <g>
    <line style="fill: none; fill-opacity:0; stroke-width: 2; stroke: #000000" x1="733.03" y1="-245.196" x2="789.638" y2="-245.196"/>
    <polygon style="fill: #000000" points="794.138,-245.196 788.138,-242.196 789.638,-245.196 788.138,-248.196 "/>
    <polygon style="fill: none; fill-opacity:0; stroke-width: 2; stroke: #000000" points="794.138,-245.196 788.138,-242.196 789.638,-245.196 788.138,-248.196 "/>
  </g>
  <g>
    <line style="fill: none; fill-opacity:0; stroke-width: 2; stroke: #000000" x1="734.97" y1="-50.15" x2="792.336" y2="-113.066"/>
    <polygon style="fill: #000000" points="795.367,-116.392 793.542,-109.937 792.336,-113.066 789.108,-113.979 "/>
    <polygon style="fill: none; fill-opacity:0; stroke-width: 2; stroke: #000000" points="795.367,-116.392 793.542,-109.937 792.336,-113.066 789.108,-113.979 "/>
  </g>
  <g>
    <line style="fill: none; fill-opacity:0; stroke-width: 2; stroke: #000000" x1="733.384" y1="-184.221" x2="792.211" y2="-122.905"/>
    <polygon style="fill: #000000" points="795.326,-119.658 789.007,-121.91 792.211,-122.905 793.337,-126.064 "/>
    <polygon style="fill: none; fill-opacity:0; stroke-width: 2; stroke: #000000" points="795.326,-119.658 789.007,-121.91 792.211,-122.905 793.337,-126.064 "/>
  </g>
  <g>
    <line style="fill: none; fill-opacity:0; stroke-width: 2; stroke: #000000" x1="507.187" y1="-139.544" x2="506.348" y2="-189.961"/>
    <polygon style="fill: #000000" points="506.223,-197.46 511.389,-187.545 506.348,-189.961 501.39,-187.378 "/>
    <polygon style="fill: none; fill-opacity:0; stroke-width: 2; stroke: #000000" points="506.223,-197.46 511.389,-187.545 506.348,-189.961 501.39,-187.378 "/>
  </g>
  <g>
    <line style="fill: none; fill-opacity:0; stroke-width: 2; stroke: #ff8400" x1="410" y1="-86.15" x2="440.978" y2="-115.418"/>
    <polygon style="fill: #ff8400" points="444.249,-118.508 441.948,-112.207 440.978,-115.418 437.827,-116.568 "/>
    <polygon style="fill: none; fill-opacity:0; stroke-width: 2; stroke: #ff8400" points="444.249,-118.508 441.948,-112.207 440.978,-115.418 437.827,-116.568 "/>
  </g>
  <g>
    <line style="fill: none; fill-opacity:0; stroke-width: 2; stroke: #000000" x1="410" y1="-86.15" x2="440.187" y2="-54.9882"/>
    <polygon style="fill: #000000" points="443.318,-51.7561 436.989,-53.9782 440.187,-54.9882 441.298,-58.1529 "/>
    <polygon style="fill: none; fill-opacity:0; stroke-width: 2; stroke: #000000" points="443.318,-51.7561 436.989,-53.9782 440.187,-54.9882 441.298,-58.1529 "/>
  </g>
  <text font-size="12.8" style="fill: #000000;text-anchor:start;font-family:sans-serif;font-style:normal;font-weight:normal" x="745.7" y="-193.55">
    <tspan x="745.7" y="-193.55">No</tspan>
  </text>
  <text font-size="12.8" style="fill: #000000;text-anchor:start;font-family:sans-serif;font-style:normal;font-weight:normal" x="571.828" y="-190.17">
    <tspan x="571.828" y="-190.17">No</tspan>
  </text>
  <text font-size="12.8" style="fill: #000000;text-anchor:start;font-family:sans-serif;font-style:normal;font-weight:normal" x="731.7" y="-154.55">
    <tspan x="731.7" y="-154.55">Yes</tspan>
  </text>
  <g>
    <line style="fill: none; fill-opacity:0; stroke-width: 2; stroke: #000000" x1="568.624" y1="-219.196" x2="607.402" y2="-188.409"/>
    <polygon style="fill: #000000" points="610.927,-185.611 604.362,-186.992 607.402,-188.409 608.093,-191.692 "/>
    <polygon style="fill: none; fill-opacity:0; stroke-width: 2; stroke: #000000" points="610.927,-185.611 604.362,-186.992 607.402,-188.409 608.093,-191.692 "/>
  </g>
  <text font-size="12.8" style="fill: #000000;text-anchor:start;font-family:sans-serif;font-style:normal;font-weight:normal" x="743.7" y="-256.55">
    <tspan x="743.7" y="-256.55">Yes</tspan>
  </text>
  <text font-size="12.8" style="fill: #000000;text-anchor:start;font-family:sans-serif;font-style:normal;font-weight:normal" x="574.4" y="-238.65">
    <tspan x="574.4" y="-238.65">Yes</tspan>
  </text>
  <text font-size="12.8" style="fill: #000000;text-anchor:start;font-family:sans-serif;font-style:normal;font-weight:normal" x="673.03" y="-119.869">
    <tspan x="673.03" y="-119.869"></tspan>
  </text>
  <g>
    <polyline style="fill: none; fill-opacity:0; stroke-width: 2; stroke: #000000" points="673.03,-139.369 673.03,-152.083 673.031,-152.083 673.031,-158.074 "/>
    <polygon style="fill: #000000" points="673.031,-162.574 676.031,-156.574 673.031,-158.074 670.031,-156.574 "/>
    <polygon style="fill: none; fill-opacity:0; stroke-width: 2; stroke: #000000" points="673.031,-162.574 676.031,-156.574 673.031,-158.074 670.031,-156.574 "/>
  </g>
  <g>
    <line style="fill: none; fill-opacity:0; stroke-width: 2; stroke: #ff8400" x1="733.03" y1="-119.869" x2="787.142" y2="-118.322"/>
    <polygon style="fill: #ff8400" points="794.639,-118.108 784.5,-113.396 787.142,-118.322 784.786,-123.392 "/>
    <polygon style="fill: none; fill-opacity:0; stroke-width: 2; stroke: #ff8400" points="794.639,-118.108 784.5,-113.396 787.142,-118.322 784.786,-123.392 "/>
  </g>
  <text font-size="12.8" style="fill: #000000;text-anchor:start;font-family:sans-serif;font-style:normal;font-weight:normal" x="679.9" y="-148.2">
    <tspan x="679.9" y="-148.2">No</tspan>
  </text>
  <text font-size="12.8" style="fill: #000000;text-anchor:start;font-family:sans-serif;font-style:normal;font-weight:normal" x="745.9" y="-124.2">
    <tspan x="745.9" y="-124.2">Yes</tspan>
  </text>
  <g>
    <g>
      <rect style="fill: #dcfaff" x="797.686" y="-326.374" width="158" height="39" rx="4" ry="4"/>
      <rect style="fill: none; fill-opacity:0; stroke-width: 1; stroke-linejoin: round; stroke: #90ee90" x="797.686" y="-326.374" width="158" height="39" rx="4" ry="4"/>
    </g>
    <text font-size="12.8" style="fill: #000000;text-anchor:start;font-family:sans-serif;font-style:normal;font-weight:normal" x="809.186" y="-309.874">
      <tspan x="809.186" y="-309.874">Remove some </tspan>
      <tspan x="809.186" y="-293.874">washings in basket</tspan>
    </text>
  </g>
  <g>
    <g>
      <rect style="fill: #dcfaff" x="796.374" y="-264.11" width="158.626" height="37.8284" rx="4" ry="4"/>
      <rect style="fill: none; fill-opacity:0; stroke-width: 1; stroke-linejoin: round; stroke: #90ee90" x="796.374" y="-264.11" width="158.626" height="37.8284" rx="4" ry="4"/>
    </g>
    <text font-size="12.8" style="fill: #000000;text-anchor:start;font-family:sans-serif;font-style:normal;font-weight:normal" x="805.374" y="-247.61">
      <tspan x="805.374" y="-247.61">Normal phenomenon, </tspan>
      <tspan x="805.374" y="-231.61">No action required.</tspan>
    </text>
  </g>
  <g>
    <g>
      <rect style="fill: #dcfaff" x="796.374" y="-203.72" width="158.626" height="39" rx="4" ry="4"/>
      <rect style="fill: none; fill-opacity:0; stroke-width: 1; stroke-linejoin: round; stroke: #90ee90" x="796.374" y="-203.72" width="158.626" height="39" rx="4" ry="4"/>
    </g>
    <text font-size="12.8" style="fill: #000000;text-anchor:start;font-family:sans-serif;font-style:normal;font-weight:normal" x="805.124" y="-187.221">
      <tspan x="805.124" y="-187.221">Remove four </tspan>
      <tspan x="805.124" y="-171.221">mounting screws </tspan>
    </text>
  </g>
  <g>
    <g>
      <rect style="fill: #dcfaff" x="796.874" y="-137.544" width="157.626" height="39" rx="4" ry="4"/>
      <rect style="fill: none; fill-opacity:0; stroke-width: 2; stroke-linejoin: round; stroke: #ff8400" x="796.874" y="-137.544" width="157.626" height="39" rx="4" ry="4"/>
    </g>
    <text font-size="12.8" style="fill: #000000;text-anchor:start;font-family:sans-serif;font-style:normal;font-weight:normal" x="807.624" y="-122.043">
      <tspan x="807.624" y="-122.043">Ask for </tspan>
      <tspan x="807.624" y="-106.043">maintenance service</tspan>
    </text>
  </g>
  <g>
    <g>
      <rect style="fill: #dcfaff" x="798.374" y="-77.0932" width="156.626" height="53.8864" rx="4" ry="4"/>
      <rect style="fill: none; fill-opacity:0; stroke-width: 1; stroke-linejoin: round; stroke: #90ee90" x="798.374" y="-77.0932" width="156.626" height="53.8864" rx="4" ry="4"/>
    </g>
    <text font-size="12.8" style="fill: #000000;text-anchor:start;font-family:sans-serif;font-style:normal;font-weight:normal" x="804.374" y="-63.5932">
      <tspan x="804.374" y="-63.5932">Remove foreign matters，</tspan>
      <tspan x="804.374" y="-47.5932">zip up washings </tspan>
      <tspan x="804.374" y="-31.5932">and turn out inside</tspan>
    </text>
  </g>
  <g>
    <rect style="fill: #fffa9f" x="444.874" y="-69.65" width="122.626" height="39" rx="4" ry="4"/>
    <rect style="fill: none; fill-opacity:0; stroke-width: 1; stroke-linejoin: round; stroke: #90ee90" x="444.874" y="-69.65" width="122.626" height="39" rx="4" ry="4"/>
  </g>
  <text font-size="12.8" style="fill: #000000;text-anchor:start;font-family:sans-serif;font-style:normal;font-weight:normal" x="452.374" y="-46.15">
    <tspan x="452.374" y="-46.15">Scratching noise? </tspan>
  </text>
  <g>
    <rect style="fill: #dcfaff" x="611.094" y="-69.65" width="123.876" height="39" rx="4" ry="4"/>
    <rect style="fill: none; fill-opacity:0; stroke-width: 1; stroke-linejoin: round; stroke: #90ee90" x="611.094" y="-69.65" width="123.876" height="39" rx="4" ry="4"/>
  </g>
  <text font-size="12.8" style="fill: #000000;text-anchor:start;font-family:sans-serif;font-style:normal;font-weight:normal" x="619.594" y="-52.15">
    <tspan x="619.594" y="-52.15">Foreign matters </tspan>
    <tspan x="619.594" y="-36.15">in basket?  </tspan>
  </text>
  <g>
    <rect style="fill: #fffa9f" x="613.03" y="-139.369" width="120" height="39" rx="4" ry="4"/>
    <rect style="fill: none; fill-opacity:0; stroke-width: 2; stroke-linejoin: round; stroke: #ff8400" x="613.03" y="-139.369" width="120" height="39" rx="4" ry="4"/>
  </g>
  <text font-size="12.8" style="fill: #000000;text-anchor:start;font-family:sans-serif;font-style:normal;font-weight:normal" x="623.032" y="-114.869">
    <tspan x="623.032" y="-114.869">Motor Noise?</tspan>
    <tspan x="623.032" y="-98.869"></tspan>
  </text>
  <g>
    <g>
      <rect style="fill: #e5e5e5" x="445.874" y="-139.544" width="122.626" height="39" rx="4" ry="4"/>
      <rect style="fill: none; fill-opacity:0; stroke-width: 2; stroke-linejoin: round; stroke: #ff8400" x="445.874" y="-139.544" width="122.626" height="39" rx="4" ry="4"/>
    </g>
    <text font-size="12.8" style="fill: #000000;text-anchor:start;font-family:sans-serif;font-style:normal;font-weight:normal" x="453.874" y="-123.044">
      <tspan x="453.874" y="-123.044">Variable frequency</tspan>
      <tspan x="453.874" y="-107.044"> washing machine?</tspan>
    </text>
  </g>
  <g>
    <g>
      <rect style="fill: #dcfaff" x="612.678" y="-203.136" width="120.704" height="37.8284" rx="4" ry="4"/>
      <rect style="fill: none; fill-opacity:0; stroke-width: 1; stroke-linejoin: round; stroke: #90ee90" x="612.678" y="-203.136" width="120.704" height="37.8284" rx="4" ry="4"/>
    </g>
    <text font-size="12.8" style="fill: #000000;text-anchor:start;font-family:sans-serif;font-style:normal;font-weight:normal" x="617.178" y="-186.635">
      <tspan x="617.178" y="-186.635">Mounting screws in </tspan>
      <tspan x="617.178" y="-170.635">backplane removed?</tspan>
    </text>
  </g>
  <g>
    <g>
      <rect style="fill: #fffa9f" x="613.03" y="-264.696" width="120" height="39" rx="4" ry="4"/>
      <rect style="fill: none; fill-opacity:0; stroke-width: 1; stroke-linejoin: round; stroke: #90ee90" x="613.03" y="-264.696" width="120" height="39" rx="4" ry="4"/>
    </g>
    <text font-size="12.8" style="fill: #000000;text-anchor:start;font-family:sans-serif;font-style:normal;font-weight:normal" x="621.73" y="-246.896">
      <tspan x="621.73" y="-246.896">Whistler-type </tspan>
      <tspan x="621.73" y="-230.896">noise?</tspan>
    </text>
  </g>
  <g>
    <g>
      <rect style="fill: #fffa9f" x="443.748" y="-238.696" width="124.876" height="39" rx="4" ry="4"/>
      <rect style="fill: none; fill-opacity:0; stroke-width: 1; stroke-linejoin: round; stroke: #90ee90" x="443.748" y="-238.696" width="124.876" height="39" rx="4" ry="4"/>
    </g>
    <text font-size="12.8" style="fill: #000000;text-anchor:start;font-family:sans-serif;font-style:normal;font-weight:normal" x="450.378" y="-215.798">
      <tspan x="450.378" y="-215.798">Spinning mode?</tspan>
    </text>
  </g>
  <g>
    <g>
      <rect style="fill: #fffa9f" x="329" y="-105.65" width="81" height="39" rx="4" ry="4"/>
      <rect style="fill: none; fill-opacity:0; stroke-width: 2; stroke-linejoin: round; stroke: #ff8400" x="329" y="-105.65" width="81" height="39" rx="4" ry="4"/>
    </g>
    <text font-size="12.8" style="fill: #000000;text-anchor:start;font-family:sans-serif;font-style:normal;font-weight:normal" x="335.752" y="-81.0998">
      <tspan x="335.752" y="-81.0998">Loud Noise?</tspan>
    </text>
  </g>
  <g>
    <g>
      <rect style="fill: #e5e5e5" x="192" y="-105.65" width="105" height="39" rx="4" ry="4"/>
      <rect style="fill: none; fill-opacity:0; stroke-width: 2; stroke-linejoin: round; stroke: #ff8400" x="192" y="-105.65" width="105" height="39" rx="4" ry="4"/>
    </g>
    <text font-size="12.8" style="fill: #000000;text-anchor:start;font-family:sans-serif;font-style:normal;font-weight:normal" x="207.876" y="-81.15">
      <tspan x="207.876" y="-81.15">Error code?</tspan>
    </text>
  </g>
  <g>
    <g>
      <rect style="fill: #fffa9f" x="192" y="-327.374" width="140" height="39" rx="4" ry="4"/>
      <rect style="fill: none; fill-opacity:0; stroke-width: 1; stroke-linejoin: round; stroke: #90ee90" x="192" y="-327.374" width="140" height="39" rx="4" ry="4"/>
    </g>
    <text font-size="12.8" style="fill: #000000;text-anchor:start;font-family:sans-serif;font-style:normal;font-weight:normal" x="197.124" y="-311.874">
      <tspan x="197.124" y="-311.874">Low speed spinning </tspan>
      <tspan x="197.124" y="-295.874">mode for a long time? </tspan>
    </text>
  </g>
  <g>
    <g>
      <rect style="fill: #fffa9f" x="53.375" y="-219.374" width="105" height="39" rx="4" ry="4"/>
      <rect style="fill: none; fill-opacity:0; stroke-width: 2; stroke-linejoin: round; stroke: #ff8400" x="53.375" y="-219.374" width="105" height="39" rx="4" ry="4"/>
    </g>
    <text font-size="12.8" style="fill: #000000;text-anchor:start;font-family:sans-serif;font-style:normal;font-weight:normal" x="56.875" y="-194.874">
      <tspan x="56.875" y="-194.874">Abnormal noise？</tspan>
    </text>
  </g>
</svg>
