<?xml version="1.0" encoding="utf-8"?>
<!-- Generator: Adobe Illustrator 18.1.1, SVG Export Plug-In . SVG Version: 6.00 Build 0)  -->
<svg version="1.1" id="Layer_1" xmlns="http://www.w3.org/2000/svg" xmlns:xlink="http://www.w3.org/1999/xlink" x="0px" y="0px"
	 viewBox="0 0 333.2 282.8" enable-background="new 0 0 333.2 282.8" xml:space="preserve">
<path fill="none" stroke="#000000" stroke-width="10" stroke-miterlimit="10" d="M142.2,208c0,0,6.2,46-40.4,30c0,0-42-19-53.6-38
	s-77.7-143,18-173c0,0,65.9-5,67,54.1"/>
<path fill="none" stroke="#000000" stroke-width="5" stroke-miterlimit="10" d="M112.2,134.2c0,0-2,14.8,15,24.8c0,0,11,17,0,19
	c0,0-3.1,3-15.1-7c0,0-20.9-1.2-22.9,7.4c0,0-45.8-21.4,12.6-74.4c0,0,23.4-38-16.6-50c0,0-81-7.3-34,113.3"/>
<polyline fill="none" stroke="#000000" stroke-width="4" stroke-miterlimit="10" points="307.2,96.5 300.8,182 287.2,31 279.5,271 
	265.2,60 258.2,246.7 235.2,60 235.2,246.7 210.1,80.4 205.7,228.4 189.2,91.2 181.7,160.4 170.3,118.2 160.2,160.4 "/>
</svg>
