<?xml version="1.0" encoding="UTF-8" standalone="no"?>
<svg width="40px" height="40px" viewBox="0 0 40 40" version="1.1" xmlns="http://www.w3.org/2000/svg" xmlns:xlink="http://www.w3.org/1999/xlink">
    <!-- Generator: Sketch 3.6.1 (26313) - http://www.bohemiancoding.com/sketch -->
    <title>Group 9</title>
    <desc>Created with Sketch.</desc>
    <defs></defs>
    <g id="Welcome" stroke="none" stroke-width="1" fill="none" fill-rule="evenodd">
        <g id="Washer-experience" transform="translate(-141.000000, -613.000000)">
            <g id="Group-9" transform="translate(141.000000, 613.000000)">
                <rect id="Rectangle-342" fill="#FFFFFF" x="0" y="0" width="40" height="40"></rect>
                <g id="Group-5" transform="translate(17.000000, 3.000000)" stroke="#252525" stroke-width="2" stroke-linecap="square">
                    <path d="M5.58504608,0 L0.317009216,6.02061356" id="Line"></path>
                    <path d="M6.26803686,14 L1,20.0206136" id="Line"></path>
                    <path d="M6.26803686,28 L1,34.0206136" id="Line"></path>
                    <path d="M6.26803686,7 L1,13.0206136" id="Line" transform="translate(3.634018, 10.010307) scale(1, -1) translate(-3.634018, -10.010307) "></path>
                    <path d="M6.26803686,21 L1,27.0206136" id="Line" transform="translate(3.634018, 24.010307) scale(1, -1) translate(-3.634018, -24.010307) "></path>
                </g>
                <g id="Group-5" transform="translate(9.000000, 3.000000)" stroke="#252525" stroke-width="2" stroke-linecap="square">
                    <path d="M5.58504608,0 L0.317009216,6.02061356" id="Line"></path>
                    <path d="M6.26803686,14 L1,20.0206136" id="Line"></path>
                    <path d="M6.26803686,28 L1,34.0206136" id="Line"></path>
                    <path d="M6.26803686,7 L1,13.0206136" id="Line" transform="translate(3.634018, 10.010307) scale(1, -1) translate(-3.634018, -10.010307) "></path>
                    <path d="M6.26803686,21 L1,27.0206136" id="Line" transform="translate(3.634018, 24.010307) scale(1, -1) translate(-3.634018, -24.010307) "></path>
                </g>
                <g id="Group-5" transform="translate(25.000000, 3.000000)" stroke="#252525" stroke-width="2" stroke-linecap="square">
                    <path d="M5.58504608,0 L0.317009216,6.02061356" id="Line"></path>
                    <path d="M6.26803686,14 L1,20.0206136" id="Line"></path>
                    <path d="M6.26803686,28 L1,34.0206136" id="Line"></path>
                    <path d="M6.26803686,7 L1,13.0206136" id="Line" transform="translate(3.634018, 10.010307) scale(1, -1) translate(-3.634018, -10.010307) "></path>
                    <path d="M6.26803686,21 L1,27.0206136" id="Line" transform="translate(3.634018, 24.010307) scale(1, -1) translate(-3.634018, -24.010307) "></path>
                </g>
            </g>
        </g>
    </g>
</svg>