<?xml version="1.0" encoding="UTF-8" standalone="no"?>
<svg width="89px" height="120px" viewBox="0 0 89 120" version="1.1" xmlns="http://www.w3.org/2000/svg" xmlns:xlink="http://www.w3.org/1999/xlink">
    <!-- Generator: Sketch 3.6.1 (26313) - http://www.bohemiancoding.com/sketch -->
    <title>Group</title>
    <desc>Created with Sketch.</desc>
    <defs></defs>
    <g id="Welcome" stroke="none" stroke-width="1" fill="none" fill-rule="evenodd">
        <g id="VwApp-&gt;-Sim-Appliance" transform="translate(-270.000000, -381.000000)">
            <g id="Group" transform="translate(270.000000, 381.000000)">
                <path d="M81.6503358,119.630634 L6.94896475,119.630634 C3.12703414,119.630634 0,116.509835 0,112.695525 L0,6.93510924 C0,3.12079916 3.12703414,0 6.94896475,0 L81.6503358,0 C85.4722664,0 88.5993005,3.12079916 88.5993005,6.93510924 L88.5993005,112.695525 C88.5993005,116.509835 85.4722664,119.630634 81.6503358,119.630634" id="Page-1" fill="#323232"></path>
                <path d="M84.980106,20.0240877 C84.980106,23.3251997 82.2978056,26.0021518 78.9900984,26.0021518 C75.6823911,26.0021518 73.0000908,23.3251997 73.0000908,20.0240877 C73.0000908,16.7229757 75.6823911,14.0460235 78.9900984,14.0460235 C82.2978056,14.0460235 84.980106,16.7229757 84.980106,20.0240877 L84.980106,20.0240877 Z" id="Fill-1" fill="#FFFFFF"></path>
                <path d="M78.9902721,14.4796412 C75.9257786,14.4796412 73.4345748,16.9676116 73.4345748,20.024261 C73.4345748,23.0809104 75.9257786,25.5688809 78.9902721,25.5688809 C82.0547655,25.5688809 84.5459694,23.0809104 84.5459694,20.024261 C84.5459694,16.9676116 82.0547655,14.4796412 78.9902721,14.4796412 M78.9902721,26.4357695 C75.4480373,26.4357695 72.5659542,23.559433 72.5659542,20.024261 C72.5659542,16.4890891 75.4480373,13.6127525 78.9902721,13.6127525 C82.5325069,13.6127525 85.41459,16.4890891 85.41459,20.024261 C85.41459,23.559433 82.5325069,26.4357695 78.9902721,26.4357695" id="Fill-3" fill="#323232"></path>
                <path d="M82.4887284,20.0240877 C82.4887284,21.952048 80.9217368,23.5159152 78.9899246,23.5159152 C77.0581124,23.5159152 75.4911209,21.952048 75.4911209,20.0240877 C75.4911209,18.0961273 77.0581124,16.5322602 78.9899246,16.5322602 C80.9217368,16.5322602 82.4887284,18.0961273 82.4887284,20.0240877" id="Fill-5" fill="#323232"></path>
                <path d="M71.0821765,20.0240877 C71.0821765,23.3251997 68.3998761,26.0021518 65.0921689,26.0021518 C61.7844616,26.0021518 59.1021613,23.3251997 59.1021613,20.0240877 C59.1021613,16.7229757 61.7844616,14.0460235 65.0921689,14.0460235 C68.3998761,14.0460235 71.0821765,16.7229757 71.0821765,20.0240877" id="Fill-7" fill="#FFFFFF"></path>
                <path d="M65.0923426,14.4796412 C62.0295864,14.4796412 59.5366453,16.9676116 59.5366453,20.024261 C59.5366453,23.0809104 62.0295864,25.5688809 65.0923426,25.5688809 C68.1550988,25.5688809 70.6480399,23.0809104 70.6480399,20.024261 C70.6480399,16.9676116 68.1550988,14.4796412 65.0923426,14.4796412 M65.0923426,26.4357695 C61.5501078,26.4357695 58.6680247,23.559433 58.6680247,20.024261 C58.6680247,16.4890891 61.5501078,13.6127525 65.0923426,13.6127525 C68.6345774,13.6127525 71.5149233,16.4890891 71.5149233,20.024261 C71.5149233,23.559433 68.6345774,26.4357695 65.0923426,26.4357695" id="Fill-9" fill="#323232"></path>
                <path d="M65.0919951,23.5159152 C63.1601829,23.5159152 61.5931914,21.952048 61.5931914,20.0240877 C61.5931914,18.0961273 63.1601829,16.5322602 65.0919951,16.5322602 C67.0238073,16.5322602 68.5907989,18.0961273 68.5907989,20.0240877 C68.5907989,21.952048 67.0238073,23.5159152 65.0919951,23.5159152 Z" id="Fill-11" fill="#6BBAFF"></path>
                <path d="M65.0923426,17.4003625 C63.6434834,17.4003625 62.4621594,18.5775973 62.4621594,20.0253013 C62.4621594,21.4730054 63.6434834,22.6485064 65.0923426,22.6485064 C66.5412017,22.6485064 67.7225257,21.4730054 67.7225257,20.0253013 C67.7225257,18.5775973 66.5412017,17.4003625 65.0923426,17.4003625 M65.0923426,24.3822837 C62.6845263,24.3822837 60.7249182,22.4265829 60.7249182,20.0253013 C60.7249182,17.622286 62.6845263,15.6665851 65.0923426,15.6665851 C67.5001589,15.6665851 69.4597669,17.622286 69.4597669,20.0253013 C69.4597669,22.4265829 67.5001589,24.3822837 65.0923426,24.3822837" id="Fill-13" fill="#323232"></path>
                <path d="M1.73724119,31.1672478 L86.8620594,31.1672478" id="Fill-15" fill="#323232"></path>
                <path d="M1.73724119,32.900505 L86.8620594,32.900505 L86.8620594,29.4329504 L1.73724119,29.4329504 L1.73724119,32.900505 Z" id="Fill-17" fill="#FFFFFF"></path>
                <path d="M76.9271259,74.3974246 C76.9271259,92.4269749 62.2821827,107.044451 44.2148744,107.044451 C26.1493033,107.044451 11.5026228,92.4269749 11.5026228,74.3974246 C11.5026228,56.3678744 26.1493033,41.7503979 44.2148744,41.7503979 C62.2821827,41.7503979 76.9271259,56.3678744 76.9271259,74.3974246" id="Fill-19" fill="#FFFFFF"></path>
                <path d="M44.2150481,42.1845357 C26.4170121,42.1845357 11.9371068,56.6355696 11.9371068,74.3963844 C11.9371068,92.1589329 26.4170121,106.609967 44.2150481,106.609967 C62.0130841,106.609967 76.4929894,92.1589329 76.4929894,74.3963844 C76.4929894,56.6355696 62.0130841,42.1845357 44.2150481,42.1845357 M44.2150481,107.476855 C25.9375336,107.476855 11.0684863,92.6374554 11.0684863,74.3963844 C11.0684863,56.1570471 25.9375336,41.3176471 44.2150481,41.3176471 C62.4925626,41.3176471 77.36161,56.1570471 77.36161,74.3963844 C77.36161,92.6374554 62.4925626,107.476855 44.2150481,107.476855" id="Fill-20" fill="#323232"></path>
                <path d="M43.5371766,96.7908924 C30.8379435,96.7908924 20.5447895,86.5182618 20.5447895,73.8460834 C20.5447895,61.1739051 30.8379435,50.9012745 43.5371766,50.9012745 C56.2346724,50.9012745 66.5278265,61.1739051 66.5278265,73.8460834 C66.5278265,86.5182618 56.2346724,96.7908924 43.5371766,96.7908924 Z" id="Fill-21" fill="#6BBAFF"></path>
                <path d="M66.5278265,59.0717001 L63.4824427,59.0717001 C59.7595348,59.0717001 56.714151,61.8006656 56.714151,63.0177773 L56.714151,86.0059306 C56.714151,87.2230423 59.7595348,89.9520078 63.4824427,89.9520078 L66.5278265,89.9520078 L66.5278265,59.0717001 Z" id="Fill-22" fill="#323232"></path>
                <path d="M5.94657658,25.2493457 L34.7326631,25.2493457 L34.7326631,12.1367879 L5.94657658,12.1367879 L5.94657658,25.2493457 Z" id="Fill-23" fill="#FFFFFF"></path>
                <path d="M44.0037996,51.7440637 C31.7267161,51.7440637 21.7393165,61.7115494 21.7393165,73.9641537 C21.7393165,86.2167579 31.7267161,96.1842437 44.0037996,96.1842437 C56.280883,96.1842437 66.2682826,86.2167579 66.2682826,73.9641537 C66.2682826,61.7115494 56.280883,51.7440637 44.0037996,51.7440637 M44.0037996,103.119353 C27.8960993,103.119353 14.7903518,90.0414707 14.7903518,73.9641537 C14.7903518,57.8885705 27.8960993,44.8089544 44.0037996,44.8089544 C60.1114999,44.8089544 73.2189846,57.8885705 73.2189846,73.9641537 C73.2189846,90.0414707 60.1114999,103.119353 44.0037996,103.119353" id="Fill-24" fill="#323232"></path>
                <path d="M47.3703978,22.5013087 C47.3703978,23.5762506 46.4965655,24.4483406 45.4194759,24.4483406 C44.3406492,24.4483406 43.4668168,23.5762506 43.4668168,22.5013087 C43.4668168,21.4263668 44.3406492,20.5542768 45.4194759,20.5542768 C46.4965655,20.5542768 47.3703978,21.4263668 47.3703978,22.5013087" id="Fill-25" fill="#FFFFFF"></path>
                <path d="M53.8306766,22.5013087 C53.8306766,23.5762506 52.9568443,24.4483406 51.8797547,24.4483406 C50.800928,24.4483406 49.9270956,23.5762506 49.9270956,22.5013087 C49.9270956,21.4263668 50.800928,20.5542768 51.8797547,20.5542768 C52.9568443,20.5542768 53.8306766,21.4263668 53.8306766,22.5013087" id="Fill-26" fill="#FFFFFF"></path>
            </g>
        </g>
    </g>
</svg>